<svg xmlns="http://www.w3.org/2000/svg" viewBox="0 0 32 32" role="img" aria-label="GitHub">
  <circle cx="16" cy="16" r="16" fill="#24292f"/>
  <path fill="#fff" d="M16 6.2a10 10 0 0 0-3.2 19.5c.5.1.7-.2.7-.5v-1.8c-2.9.6-3.5-1.2-3.5-1.2-.5-1.1-1.1-1.4-1.1-1.4-.9-.6.1-.6.1-.6 1 0 1.6 1 1.6 1 .9 1.5 2.3 1.1 2.9.8.1-.7.4-1.1.7-1.3-2.3-.3-4.7-1.1-4.7-5a3.9 3.9 0 0 1 1-2.7c-.1-.3-.4-1.3.1-2.7 0 0 .9-.3 2.8 1a9.7 9.7 0 0 1 5.1 0c1.9-1.3 2.8-1 2.8-1 .5 1.4.2 2.4.1 2.7a3.9 3.9 0 0 1 1 2.7c0 3.9-2.4 4.7-4.7 5 .4.3.7.9.7 1.8v2.7c0 .3.2.6.7.5A10 10 0 0 0 16 6.2z"/>
</svg>
